<svg width="22" height="23" viewBox="0 0 22 23" fill="none" xmlns="http://www.w3.org/2000/svg">
<path d="M10.8791 0.873789C8.29623 0.871548 5.79698 1.81683 3.82917 3.54027C1.86136 5.2637 0.553587 7.65265 0.140169 10.2791C-0.273248 12.9055 0.23471 15.5978 1.57303 17.8735C2.91135 20.1491 4.99257 21.8595 7.44378 22.6982C7.98599 22.795 8.15815 22.4668 8.15815 22.1712C8.15815 21.9032 8.16409 21.1612 8.15815 20.2245C5.13345 20.8992 4.50912 18.7486 4.50912 18.7486C4.30948 18.0716 3.8813 17.4906 3.30201 17.1106C2.31555 16.4155 3.37622 16.4287 3.37622 16.4287C3.72068 16.4775 4.04977 16.6068 4.33836 16.8065C4.62696 17.0063 4.86743 17.2714 5.04144 17.5815C5.18867 17.8577 5.38759 18.1012 5.6267 18.2978C5.8658 18.4943 6.14035 18.6401 6.43448 18.7268C6.72861 18.8134 7.03649 18.8391 7.34032 18.8024C7.64416 18.7658 7.93793 18.6674 8.20465 18.5131C8.25455 17.9469 8.49912 17.4178 8.89429 17.0209C6.48106 16.7365 3.94316 15.7774 3.94316 11.4843C3.92783 10.3716 4.32891 9.29563 5.0632 8.47951C4.73051 7.51406 4.76838 6.45416 5.16907 5.51652C5.16907 5.51652 6.08331 5.21584 8.15716 6.66625C9.9392 6.16272 11.82 6.16272 13.602 6.66625C15.6818 5.21686 16.5881 5.51652 16.5881 5.51652C16.9888 6.45424 17.0274 7.51427 16.696 8.47951C17.4305 9.29618 17.8309 10.3732 17.814 11.4863C17.814 15.7907 15.2722 16.7355 12.851 17.0107C13.1113 17.28 13.3125 17.6037 13.4408 17.96C13.5692 18.3162 13.6218 18.6967 13.5951 19.0757V22.1753C13.5951 22.475 13.7702 22.8062 14.3223 22.6972C16.7734 21.8577 18.8543 20.1466 20.192 17.8703C21.5296 15.594 22.0367 12.9014 21.6223 10.275C21.2079 7.64854 19.8992 5.25996 17.9305 3.53726C15.9619 1.81456 13.4621 0.870336 10.8791 0.873789Z" fill="white"/>
</svg>
