<svg width="55" height="55" viewBox="0 0 55 55" fill="none" xmlns="http://www.w3.org/2000/svg">
<g clip-path="url(#clip0_437_199)">
<path d="M45.9756 9.02435L41.4634 41.7377L27.9268 46.2499L14.3903 41.7377L9.87811 9.02435H45.9756Z" stroke="#FFC42E" stroke-width="3" stroke-linecap="round" stroke-linejoin="round"/>
<path d="M17.7744 18.0487H24.5427V36.0974L20.0305 33.8413" stroke="#FFC42E" stroke-width="3" stroke-linecap="round" stroke-linejoin="round"/>
<path d="M38.0793 18.0487H32.4391C32.1399 18.0487 31.853 18.1676 31.6414 18.3791C31.4299 18.5907 31.311 18.8776 31.311 19.1768V25.945C31.311 26.2442 31.4299 26.5311 31.6414 26.7427C31.853 26.9542 32.1399 27.0731 32.4391 27.0731H35.6495C35.8109 27.0731 35.9705 27.1078 36.1174 27.1748C36.2643 27.2418 36.3951 27.3396 36.501 27.4615C36.6069 27.5834 36.6853 27.7266 36.7311 27.8815C36.7769 28.0363 36.7888 28.1992 36.7662 28.359L35.8232 34.9694L31.311 36.0974" stroke="#FFC42E" stroke-width="3" stroke-linecap="round" stroke-linejoin="round"/>
</g>
<defs>
<clipPath id="clip0_437_199">
<rect width="54.1462" height="54.1462" fill="white" transform="translate(0.85376)"/>
</clipPath>
</defs>
</svg>
